<?xml version="1.0" encoding="UTF-8"?>
<svg id="Layer_2" data-name="Layer 2" xmlns="http://www.w3.org/2000/svg" viewBox="0 0 90.96 69.37">
  <defs>
    <style>
      .cls-1 {
        opacity: .93;
      }

      .cls-1, .cls-2 {
        fill: none;
        stroke: #f7cf56;
        stroke-linecap: round;
        stroke-miterlimit: 10;
        stroke-width: 3px;
      }
    </style>
  </defs>
  <g id="editProfile">
    <circle class="cls-2" cx="29" cy="24" r="22.5"/>
    <path class="cls-2" d="M44.94,60.26l-1.19.44c-2.11.78-4.63.89-7.33.32h0c-.57-2.7-.46-5.22.32-7.33l.44-1.19"/>
    <path class="cls-1" d="M41.54,48.15L79.28,8.22c.31-.32.89-.31,1.45.05l3.04,1.91c1.41.89,2.61,2.08,3.5,3.5l1.91,3.04c.35.56.37,1.14.05,1.45l-39.93,37.75s-.01,0-.02,0l-.43-.18c-3.24-1.33-5.8-3.9-7.13-7.13l-.18-.43s0-.02,0-.02Z"/>
    <path class="cls-1" d="M89.18,16.71l-1.91-3.04c-.89-1.41-2.08-2.61-3.5-3.5l-3.04-1.91c-.56-.35-1.14-.37-1.45-.05l-28.6,30.26c-.76-.98-1.58-1.9-2.47-2.77,2.52-4.13,3.75-9.13,3.12-14.44-1.21-10.26-9.51-18.49-19.78-19.62C17.99.15,6.5,10.73,6.5,24c0,4.29,1.2,8.3,3.28,11.71-5.11,4.99-8.28,11.96-8.28,19.66v11.02c0,.82.66,1.48,1.48,1.48h52.03c.82,0,1.48-.66,1.48-1.48v-11.02c0-1.96-.21-3.87-.6-5.71l33.32-31.5c.32-.31.31-.89-.05-1.45Z"/>
  </g>
</svg>