<?xml version="1.0" encoding="UTF-8"?>
<svg id="Layer_1" data-name="Layer 1" xmlns="http://www.w3.org/2000/svg" viewBox="0 0 100 100">
  <defs>
    <style>
      .cls-1 {
        fill: #f6ce55;
      }
    </style>
  </defs>
  <path class="cls-1" d="M18.56,48.96c6.47,1.8,15.42,3.2,21.25,6.69,2.98,1.57,6.47,4.61,9.06,6.78,0,0,8.22,6.86,8.22,6.86,0,0-5.74,2.75-5.74,2.75.96-19.9,6.84-46.86,26.57-56.16,1.6-.69,2.79,1.62,1.23,2.49-4.39,2.35-8,5.91-10.78,10.03-5.59,8.38-8.09,18.51-9.33,28.44-.99,7.32-.78,15.53-.37,22.88-5.27-4.4-13.09-10.92-18.36-15.3-3.87-3.14-8.16-4.97-13.09-6.06,0,0-10.38-2.62-10.38-2.62-4.44-1.26-2.83-7.78,1.71-6.79h0Z"/>
</svg>