<?xml version="1.0" encoding="UTF-8"?>
<svg id="Layer_2" data-name="Layer 2" xmlns="http://www.w3.org/2000/svg" viewBox="0 0 64.53 60.94">
  <defs>
    <style>
      .cls-1 {
        fill: #f7cf56;
      }
    </style>
  </defs>
  <g id="logo">
    <path class="cls-1" d="M6.64,28.9c8.28,3.66,16.14,9.09,22.36,15.67,2.73,2.8,5.22,5.76,7.67,8.77,0,0,.51.63.51.63l.13.16c-1.98-2.28-5.88-1.07-6.35,1.72,2.59-17.16,6.64-35.64,19.53-48.32,3.3-3.17,7.23-5.74,11.48-7.41.97-.38,2.06.1,2.44,1.07.36.92-.05,1.95-.92,2.38-3.65,1.77-6.89,4.28-9.57,7.3-10.82,12.47-13.51,29.76-15,45.79-.09,1.25-.58,2.48-1.62,3.31-1.83,1.58-4.82,1.17-6.25-.77-.33-.37-1.27-1.41-1.61-1.79-4.76-5.3-10.02-10.37-15.95-14.24-3.35-2.2-6.94-4.05-10.68-5.68-5.64-2.68-1.96-11,3.83-8.59h0Z"/>
  </g>
</svg>